General
Complete name                            : Prizzi's Honor [1985] 720p HDTVRip H264 AC3 - CODY.mp4
Format                                   : MPEG-4
Format profile                           : Base Media
Codec ID                                 : isom
File size                                : 2.83 GiB
Duration                                 : 2h 9mn
Overall bit rate mode                    : Variable
Overall bit rate                         : 3 137 Kbps
Encoded date                             : UTC 2012-08-20 00:26:16
Writing application                      : Yamb 2.1.0.0 [http://yamb.unite-video.com]

Video
ID                                       : 1
Format                                   : AVC
Format/Info                              : Advanced Video Codec
Format profile                           : High@L4.1
Format settings, CABAC                   : Yes
Format settings, ReFrames                : 5 frames
Codec ID                                 : avc1
Codec ID/Info                            : Advanced Video Coding
Duration                                 : 2h 9mn
Bit rate mode                            : Variable
Bit rate                                 : 2 750 Kbps
Maximum bit rate                         : 20.0 Mbps
Width                                    : 1 280 pixels
Height                                   : 720 pixels
Display aspect ratio                     : 16:9
Frame rate mode                          : Constant
Frame rate                               : 29.970 fps
Color space                              : YUV
Chroma subsampling                       : 4:2:0
Bit depth                                : 8 bits
Scan type                                : Progressive
Bits/(Pixel*Frame)                       : 0.100
Stream size                              : 2.48 GiB (88%)
Writing library                          : x264 core 125 r2200 999b753
Encoding settings                        : rc=2pass
Color primaries                          : Generic film

Audio
ID                                       : 2
Format                                   : AC-3
Format/Info                              : Audio Coding 3
Mode extension                           : CM (complete main)
Codec ID                                 : ac-3
Duration                                 : 2h 9mn
Bit rate mode                            : Constant
Bit rate                                 : 384 Kbps
Channel(s)                               : 2 channels
Channel positions                        : Front: L R
Sampling rate                            : 48.0 KHz
Bit depth                                : 16 bits
Compression mode                         : Lossy
Stream size                              : 355 MiB (12%)



IMDB link:                                 http://www.imdb.com/title/tt0089841/



Subtitles included                       : Romanian



Please seed at least 1,5:1. This way this torrent has a chance to survive!



Thanks. Enjoy !!